Coordinates
version=1
nRows=17
nColumns=38
inDegrees=yes

Units are S.I. units (second, meters, Newtons, ...)
Angles are in degrees.

endheader
time	pelvis_tilt	pelvis_list	pelvis_rotation	pelvis_tx	pelvis_ty	pelvis_tz	hip_flexion_r	hip_adduction_r	hip_rotation_r	knee_angle_r	ankle_angle_r	subtalar_angle_r	mtp_angle_r	hip_flexion_l	hip_adduction_l	hip_rotation_l	knee_angle_l	ankle_angle_l	subtalar_angle_l	mtp_angle_l	lumbar_extension	lumbar_bending	lumbar_rotation	arm_flex_r	arm_add_r	arm_rot_r	elbow_flex_r	pro_sup_r	wrist_flex_r	wrist_dev_r	arm_flex_l	arm_add_l	arm_rot_l	elbow_flex_l	pro_sup_l	wrist_flex_l	wrist_dev_l
      2.35000000	      1.07874735	     -6.73710703	      2.12170031	     -0.34591084	      0.90327224	      0.25663554	     19.79983864	     10.56718756	     -5.42083650	    -26.78416491	      0.27600064	     -7.87603476	      4.65612423	      1.61202818	     -6.23553306	      4.64069351	    -58.75630545	    -14.36806943	      3.49072711	     18.96344388	     -4.52533361	      9.94064432	     -6.61654542	     -7.11627983	    -17.88318265	     11.95175695	     21.21017363	     86.51662706	      0.00000000	      0.00000000	     -3.19018491	    -14.99120768	     12.03981796	     29.26376603	     86.51662706	      0.00000000	      0.00000000
      2.36000000	      1.15107678	     -6.66259871	      2.45226723	     -0.33386068	      0.90542444	      0.25708850	     18.53549356	     10.44742561	     -5.98179943	    -26.22968460	      1.20580936	     -7.00841132	      4.26381201	      3.64341150	     -5.84235418	      5.35095938	    -60.65106571	    -12.73478535	      2.88741500	     18.41482338	     -4.71789575	      9.86660170	     -6.47049712	     -6.83807458	    -18.03537047	     12.12428856	     21.87293199	     86.51662706	      0.00000000	      0.00000000	     -3.07973220	    -14.90627777	     12.62843422	     28.71006743	     86.51662706	      0.00000000	      0.00000000
      2.37000000	      1.20060533	     -6.50350792	      2.75454516	     -0.32186094	      0.90762951	      0.25754725	     17.25464613	     10.25477107	     -6.53676729	    -25.59620134	      2.04221252	     -6.12589651	      3.91282096	      5.64413980	     -5.32247351	      5.99987012	    -62.14288148	    -11.03305356	      2.43276939	     18.10270617	     -4.88689156	      9.68751311	     -6.29805051	     -6.55832506	    -18.19046182	     12.30267553	     22.55562940	     86.51662706	      0.00000000	      0.00000000	     -2.98809683	    -14.84049074	     13.19956634	     28.15155374	     86.51662706	      0.00000000	      0.00000000
      2.38000000	      1.22517449	     -6.27066978	      3.00567533	     -0.30983599	      0.90985000	      0.25803625	     15.96519005	     10.01072466	     -7.02562174	    -24.90743740	      2.79457023	     -5.26790049	      3.60593712	      7.59212914	     -4.71012222	      6.54791853	    -63.22672869	     -9.34926013	      2.08460196	     17.98792665	     -5.02755385	      9.41614683	     -6.08333394	     -6.28103694	    -18.34740881	     12.47794114	     23.25462380	     86.51662706	      0.00000000	      0.00000000	     -2.93618712	    -14.78940999	     13.72496521	     27.60321618	     86.51662706	      0.00000000	      0.00000000
      2.39000000	      1.22486212	     -5.97680528	      3.18951860	     -0.29776212	      0.91205175	      0.25857733	     14.67317428	      9.73464868	     -7.39392947	    -24.18255344	      3.47281703	     -4.47163884	      3.34115226	      9.47222682	     -4.04497463	      6.95924144	    -63.90930142	     -7.73504180	      1.78609993	     18.01156469	     -5.14040242	      9.06834409	     -5.81569309	     -6.00799053	    -18.50597254	     12.63995944	     23.96803873	     86.51662706	      0.00000000	      0.00000000	     -2.93688296	    -14.74804536	     14.18122829	     27.07768703	     86.51662706	      0.00000000	      0.00000000
      2.40000000	      1.20187968	     -5.63606824	      3.29574972	     -0.28565396	      0.91419653	      0.25919585	     13.38475077	      9.44363003	     -7.60077623	    -23.43547500	      4.08663836	     -3.76869445	      3.11266986	     11.27560645	     -3.36666633	      7.20737656	    -64.20413466	     -6.21727567	      1.47806316	     18.10401032	     -5.22997731	      8.66095325	     -5.49018340	     -5.73877100	    -18.66720416	     12.77888365	     24.69534248	     86.51662706	      0.00000000	      0.00000000	     -2.99432748	    -14.71164895	     14.55184088	     26.58329500	     86.51662706	      0.00000000	      0.00000000
      2.41000000	      1.16033015	     -5.26335942	      3.31946485	     -0.27354190	      0.91623084	      0.25992473	     12.10653104	      9.15243117	     -7.62482354	    -22.67594007	      4.64577350	     -3.18145997	      2.91230401	     12.99703859	     -2.70940342	      7.28054684	    -64.12851566	     -4.80958851	      1.11000286	     18.19401691	     -5.30291117	      8.21079572	     -5.10715072	     -5.47126858	    -18.83347354	     12.88651376	     25.43668227	     86.51662706	      0.00000000	      0.00000000	     -3.10506088	    -14.67648143	     14.82832907	     26.12301232	     86.51662706	      0.00000000	      0.00000000
      2.42000000	      1.10565558	     -4.87299014	      3.26146696	     -0.26144949	      0.91809778	      0.26078498	     10.84406712	      8.87314301	     -7.46748820	    -21.91098346	      5.16064454	     -2.72003909	      2.73099627	     14.63194194	     -2.09842164	      7.18452283	    -63.70205804	     -3.52110659	      0.64791532	     18.21698498	     -5.36618558	      7.73446114	     -4.67129809	     -5.20221902	    -19.00802532	     12.95733384	     26.19215550	     86.51662706	      0.00000000	      0.00000000	     -3.26028980	    -14.64023926	     15.01041324	     25.69445978	     86.51662706	      0.00000000	      0.00000000
      2.43000000	      1.04419008	     -4.47772215	      3.12872328	     -0.24937695	      0.91975448	      0.26175578	      9.59929277	      8.61432492	     -7.15259342	    -21.14568767	      5.64267416	     -2.38029293	      2.56022502	     16.17492717	     -1.54893529	      6.94182851	    -62.94589393	     -2.36082842	      0.07778960	     18.12174720	     -5.42630108	      7.24810920	     -4.19072301	     -4.92763088	    -19.19419180	     12.98905085	     26.96119201	     86.51662706	      0.00000000	      0.00000000	     -3.44842622	    -14.60204516	     15.10520395	     25.29085529	     86.51662706	      0.00000000	      0.00000000
      2.44000000	      0.98306970	     -4.08868152	      2.93418860	     -0.23730533	      0.92116835	      0.26278228	      8.36836085	      8.38007421	     -6.72237450	    -20.38297327	      6.10397136	     -2.14368686	      2.39315192	     17.62003775	     -1.06725812	      6.58754561	    -61.88162930	     -1.33832114	     -0.59504314	     17.87519486	     -5.48945480	      6.76683101	     -3.67617805	     -4.64323376	    -19.39451448	     12.98260699	     27.74215910	     86.51662706	      0.00000000	      0.00000000	     -3.65725435	    -14.56209680	     15.12562741	     24.90259265	     86.51662706	      0.00000000	      0.00000000
      2.45000000	      0.93021759	     -3.71555460	      2.69549286	     -0.22522211	      0.92231179	      0.26382323	      7.14118000	      8.16985868	     -6.23033726	    -19.62314575	      6.55638409	     -1.97935558	      2.22541856	     18.96166531	     -0.65329747	      6.16311730	    -60.53009120	     -0.46245944	     -1.34986389	     17.46427735	     -5.56222105	      6.30374712	     -3.14046962	     -4.34505320	    -19.61005126	     12.94175068	     28.53222003	     86.51662706	      0.00000000	      0.00000000	     -3.87545352	    -14.52112781	     15.08837190	     24.51905585	     86.51662706	      0.00000000	      0.00000000
      2.46000000	      0.89409624	     -3.36665520	      2.43254414	     -0.21313827	      0.92317054	      0.26487398	      5.90333259	      7.97980862	     -5.73224816	    -18.86408147	      7.01021378	     -1.84836996	      2.05557350	     20.19484822	     -0.30319316	      5.70981084	    -58.91070765	      0.26030641	     -2.15647303	     16.89527878	     -5.65194730	      5.86914998	     -2.59771698	     -4.03003476	    -19.84009119	     12.87231277	     29.32739808	     86.51662706	      0.00000000	      0.00000000	     -4.09352321	    -14.47982289	     15.01169358	     24.13028964	     86.51662706	      0.00000000	      0.00000000
      2.47000000	      0.88305941	     -3.04858196	      2.16450976	     -0.20107317	      0.92374724	      0.26594229	      4.63985068	      7.80541059	     -5.27728874	    -18.10244073	      7.47306269	     -1.70963821	      1.88515728	     21.31476878	     -0.01115420	      5.26325923	    -57.04204190	      0.82764884	     -2.98158516	     16.19077354	     -5.76639320	      5.47009408	     -2.06223698	     -3.69653199	    -20.08236438	     12.78135353	     30.12275199	     86.51662706	      0.00000000	      0.00000000	     -4.30430657	    -14.43831937	     14.91340669	     23.72823801	     86.51662706	      0.00000000	      0.00000000
      2.48000000	      0.90432219	     -2.76562012	      1.90701528	     -0.18902809	      0.92405268	      0.26702310	      3.33926010	      7.64428758	     -4.90141523	    -17.33569684	      7.94924430	     -1.52639006	      1.71848886	     22.31657263	      0.22970543	      4.85000451	    -54.94293937	      1.24321455	     -3.79440467	     15.38503312	     -5.91272284	      5.11072664	     -1.54708154	     -3.34447711	    -20.33362249	     12.67633579	     30.91256352	     86.51662706	      0.00000000	      0.00000000	     -4.50322234	    -14.39587886	     14.80931247	     23.30741472	     86.51662706	      0.00000000	      0.00000000
      2.49000000	      0.96282692	     -2.51951465	      1.67042608	     -0.17697983	      0.92409415	      0.26809547	      1.99636932	      7.49744516	     -4.62401412	    -16.56439343	      8.43996914	     -1.27195768	      1.56219453	     23.19634844	      0.42704746	      4.48646377	    -52.63337586	      1.51860305	     -4.57037353	     14.51873748	     -6.09618340	      4.79316699	     -1.06259968	     -2.97515947	    -20.59030704	     12.56445285	     31.69046524	     86.51662706	      0.00000000	      0.00000000	     -4.68815753	    -14.35078763	     14.71221050	     22.86501217	     86.51662706	      0.00000000	      0.00000000
      2.50000000	      1.06006507	     -2.30996004	      1.45964760	     -0.16489670	      0.92387268	      0.26913397	      0.61309581	      7.36846961	     -4.44785319	    -15.79390126	      8.94421128	     -0.93366604	      1.42450670	     23.95283003	      0.58880832	      4.18010437	    -50.13459180	      1.67478503	     -5.29247997	     13.63372269	     -6.31883564	      4.51843541	     -0.61551290	     -2.59069462	    -20.84906046	     12.45218787	     32.44948167	     86.51662706	      0.00000000	      0.00000000	     -4.85900516	    -14.30055414	     14.63151799	     22.40053417	     86.51662706	      0.00000000	      0.00000000
      2.51000000	      1.19326337	     -2.13575510	      1.27519600	     -0.15275739	      0.92338860	      0.27012363	     -0.80227270	      7.26144093	     -4.36172096	    -15.03495471	      9.45984524	     -0.51404588	      1.31433866	     24.58887019	      0.72228274	      3.93197086	    -47.46870962	      1.74189622	     -5.94998074	     12.76832350	     -6.57872477	      4.28700516	     -0.20876444	     -2.19340275	    -21.10698295	     12.34510787	     33.18201489	     86.51662706	      0.00000000	      0.00000000	     -5.01699809	    -14.24237577	     14.57344006	     21.91508996	     86.51662706	      0.00000000	      0.00000000
